<svg xmlns="http://www.w3.org/2000/svg" width="47.3mm" height="52.06mm" viewBox="0 0 134.08 147.59"><defs><linearGradient id="名称未設定グラデーション_56" data-name="名称未設定グラデーション 56" x1="77.69" y1="146.11" x2="77.69" y2="3.05" gradientUnits="userSpaceOnUse"><stop offset="0" stop-color="#025fee"/><stop offset=".5" stop-color="#134f80"/><stop offset="1" stop-color="#212121"/></linearGradient><style>.cls-6{font-size:38.78px;font-family:ARDESTINE,AR DESTINE;fill:none;stroke:#231815;stroke-width:.4px}</style></defs><g id="レイヤー_7" data-name="レイヤー 7"><path d="M77.69 3.05a61.58 61.58 0 00-35.93 111.62L22.7 142.85a2.1 2.1 0 00-.11 2.15 2.08 2.08 0 001.84 1.1h106.93a2.06 2.06 0 001.83-1 2.09 2.09 0 00-1.83-3.14h-103L45.22 117A61.6 61.6 0 1077.69 3.05zm0 4.18a57.42 57.42 0 0145 93.13 2.06 2.06 0 00-1.69-.61 20 20 0 01-9-1.29 13.05 13.05 0 01-1.7-.82c7.73-7.09 13.36-17.76 13.36-33a2.08 2.08 0 00-2.09-2.09c-5.7 0-15-.19-21.49 3.49a4.34 4.34 0 01-.7.33 3 3 0 01-.48-.27 28.53 28.53 0 00-5.16-3 6.92 6.92 0 00-6.92 1 6 6 0 00-2 4.49 11.87 11.87 0 001 5A15.91 15.91 0 0088 76.81a46.75 46.75 0 01-11-3.24c-.59-.23-1.25-.45-1.87-.68l4.36-6.44A2.09 2.09 0 1076 64.12l-5 7.4a47.38 47.38 0 00-13.31-1.85c-5 0-9.5 1-13.06 3.35a2.11 2.11 0 00-.71 0 6 6 0 01-6.22-1.92 9.27 9.27 0 01-1.84-3 2.09 2.09 0 10-4 1.33A13.61 13.61 0 0034.58 74a10.71 10.71 0 005.8 3.21A15.18 15.18 0 0038 85.54a18.9 18.9 0 002.21 8.85c-.43.19-.92.39-1.54.6a24.33 24.33 0 01-9.09 1A57.42 57.42 0 0177.69 7.23zm-.06 7.31l-1.63.84-.33 1.84 1.27 1.37.73.13 1.67-.84.29-1.88-1.28-1.36zm8.37.56l-1.67.84-.33 1.83 1.27 1.37.73.13 1.67-.83.33-1.85-1.28-1.36zm-16.65.1l-1.71.8-.33 1.84 1.27 1.37.73.13 1.69-.8.33-1.85L70 15.33zm24.81 1.63l-1.68.84-.33 1.84 1.28 1.37.73.13 1.67-.84.33-1.84L94.84 17zm-32.92.35l-1.71.82-.33 1.85 1.28 1.36.72.13 1.68-.84.33-1.84-1.28-1.36zm40.6 2.82l-1.67.84-.33 1.84 1.27 1.32.73.13 1.67-.84.33-1.84-1.28-1.37zm-48.26.57l-1.68.83-.33 1.85 1.28 1.36.73.13 1.67-.84.33-1.9-1.28-1.33zm55.21 4l-1.68.84-.32 1.84 1.27 1.37.73.13 1.67-.84.33-1.84-1.28-1.37zm-62.09.68l-1.7.83-.33 1.85L46 29.29l.73.13 1.67-.84.33-1.84-1.28-1.37zm67.93 5.27l-1.67.83-.33 1.85 1.28 1.36.72.13 1.68-.84.33-1.84-1.28-1.37zm-73.82.63l-1.67.85-.33 1.84 1.27 1.37.73.13 1.67-.84.33-1.84-1.27-1.37zm78.39 6.35l-1.67.84-.33 1.84 1.27 1.36.73.13 1.67-.83.33-1.84-1.28-1.36zm-83.1.5l-1.68.85-.33 1.83 1.28 1.37.73.13 1.67-.83.33-1.85-1.28-1.36zm86.44 7.11l-1.67.84-.33 1.84 1.28 1.37.72.13 1.68-.84.33-1.84-1.28-1.37zm-89.9.49l-1.64.87-.33 1.84 1.28 1.37.72.13 1.64-.81.33-1.84-1.27-1.37zm-2.17 8.06l-1.67.84-.33 1.84 1.28 1.37.72.13 1.68-.84.33-1.84-1.28-1.34zm60.28 13a3.59 3.59 0 011.46.34 29.75 29.75 0 014.4 2.61 5.1 5.1 0 002.82.92 5.52 5.52 0 002.67-.86c4.32-2.44 11.51-2.78 17.11-2.85-.65 15.84-7.57 25.52-16.48 31.41-9.34 6.17-20.82 8.17-28.38 8.17a46.46 46.46 0 01-19.19-4.12l17.49-25.82c.94.33 1.88.66 2.77 1 4.79 1.85 9.2 3.89 14.8 3.89h4.17a2.08 2.08 0 00.61-4.07A9.39 9.39 0 0189.69 72a8.24 8.24 0 01-.69-3.27 2 2 0 01.47-1.43 2.16 2.16 0 011.28-.62zm14.09 4.24a4.18 4.18 0 104.16 4.2 4.18 4.18 0 00-4.16-4.18zm-47.2 2.93a42.71 42.71 0 0110.83 1.33l-17 25.11c-5.71-3.63-9.31-8.53-9.31-14.75 0-4.13 1.54-6.8 4.2-8.72s6.64-2.95 11.28-2.95zm-15.1 24a27.63 27.63 0 006.61 5.86l-5.06 7.48a57.79 57.79 0 01-11.47-11A27.36 27.36 0 0040 99a19.37 19.37 0 002.54-1.11zm64.37 2.54a14.56 14.56 0 003.5 1.9 23.76 23.76 0 009.13 1.65 57.78 57.78 0 01-11.16 9.22h-.12c-6.52-1.6-9.69-5.18-11.05-7.24a49.23 49.23 0 007.82-4.18c.63-.39 1.26-.83 1.88-1.29zm-54.12 5.39a49.76 49.76 0 0021.56 4.78 60.29 60.29 0 0018.92-3.17 22.48 22.48 0 0010.25 8.63 57.5 57.5 0 01-56-2.4z" transform="translate(-7.72 -3.05)" fill="url(#名称未設定グラデーション_56)" id="surface264151"/></g><g id="レイヤー_15" data-name="レイヤー 15"><g font-family="ARDESTINE,AR DESTINE"><text transform="translate(.2 137.61)" fill="#03a9f4" font-size="38.78">D</text><text transform="translate(17.48 120.76)" fill="#257afb" font-size="38.78">D</text><text transform="translate(40.79 121.19)" fill="#fafafa" font-size="25.93">-</text><text transform="translate(23.72 137.61)" font-size="24.18" fill="#fafafa">evelopers</text></g><text class="cls-6" transform="translate(.2 137.61)">D</text><text class="cls-6" transform="translate(17.48 120.76)">D</text><text transform="translate(40.79 121.19)" fill="none" stroke="#231815" stroke-width=".4" font-size="25.93" font-family="ARDESTINE,AR DESTINE">-</text><text transform="translate(23.72 137.61)" fill="none" stroke="#231815" stroke-width=".4" font-size="24.18" font-family="ARDESTINE,AR DESTINE">evelopers</text></g><g id="レイヤー_16" data-name="レイヤー 16"><g id="surface271051"><path d="M115 125.35a3.06 3.06 0 01-1.59-.65 5.54 5.54 0 00-1.23-.65 11.68 11.68 0 00-3.66-.59 7.42 7.42 0 00-3.09.57 1.29 1.29 0 00-.41.53c-.19.34-.45.79-1 .79s-.94-.6-1.16-1c-.54-.86-1.57-3.23.17-6.87a3.22 3.22 0 01-1-1.17.61.61 0 010-.57.59.59 0 01.49-.27.56.56 0 01.52.32 2.14 2.14 0 00.67.74 4.37 4.37 0 013.47-1.42 11.25 11.25 0 012.66.38c1.37.34 2.54.65 3.38.9a1.49 1.49 0 01.3-1 .94.94 0 01.71-.31c.14 0 .58 0 1.78 1.17a13.64 13.64 0 012.58.76 6.16 6.16 0 012.51 1.69l.17.22-.27 1a6.93 6.93 0 01-.67 1 4.56 4.56 0 01-2.17 1.31c-.31.09-.84.23-1.57.41h-.12a6.1 6.1 0 01-.77 0c-1.71 0-2.85-.66-3.19-1.85a.17.17 0 00-.17-.13c-.14 0-.2.13-.17.22.51 1.8 2.37 2.1 3.43 2.12h.28l-.09.26a1 1 0 00-.07.44c0 .69 0 1-.25 1.26a.66.66 0 01-.47.39zm1.26-7.11a.43.43 0 10.43.43.43.43 0 00-.45-.43z" transform="translate(-7.72 -3.05)" fill="#212121"/><path d="M114.23 115.33c.42 0 1.13.61 1.68 1.16a13.83 13.83 0 012.61.76 5.87 5.87 0 012.42 1.63l.11.14-.24.93a8.82 8.82 0 01-.63.91 4.42 4.42 0 01-2.07 1.25c-.31.09-.84.23-1.57.41h-.14a6.32 6.32 0 01-.7 0c-1.06 0-2.58-.26-3-1.71a.36.36 0 00-.36-.27h-.1a.38.38 0 00-.26.47c.49 1.74 2.19 2.24 3.62 2.26a1.32 1.32 0 00-.08.52c0 .62 0 .93-.2 1.12a.49.49 0 01-.34.15 2.88 2.88 0 01-1.48-.62 5.75 5.75 0 00-1.28-.67 12.06 12.06 0 00-3.72-.6 7.64 7.64 0 00-3.17.59c-.22.09-.37.37-.51.62s-.38.68-.78.68-.83-.61-1-.87c-.52-.84-1.53-3.2.27-6.83a3.08 3.08 0 01-1.12-1.19.39.39 0 010-.38.39.39 0 01.32-.17.36.36 0 01.33.21 2.37 2.37 0 00.88.91 4.17 4.17 0 013.44-1.48 11.19 11.19 0 012.61.37c2 .5 3.08.81 3.64 1a1.52 1.52 0 01.24-1.12.73.73 0 01.56-.25m2 4a.63.63 0 10-.63-.63.63.63 0 00.63.63m-2-4.37a1.15 1.15 0 00-.86.38 1.5 1.5 0 00-.34.86c-.82-.24-1.88-.52-3.14-.84a11.63 11.63 0 00-2.71-.38 4.58 4.58 0 00-3.5 1.35 1.75 1.75 0 01-.46-.56.75.75 0 00-.68-.43.77.77 0 00-.67.36.78.78 0 000 .77 3.48 3.48 0 001 1.15c-1.68 3.64-.64 6-.1 6.9.3.48.77 1.06 1.34 1.06s.93-.53 1.13-.88c.09-.16.23-.42.32-.46a7.39 7.39 0 013-.55 11.48 11.48 0 013.59.58 5.71 5.71 0 011.2.63 3.25 3.25 0 001.69.68.84.84 0 00.63-.28 1.81 1.81 0 00.31-1.41.76.76 0 01.06-.36l.18-.51h.37c.76-.18 1.29-.32 1.6-.41a4.79 4.79 0 002.26-1.39 8 8 0 00.67-1v-.06l.24-.93v-.19l-.12-.16-.11-.14a6.52 6.52 0 00-2.6-1.76 14.18 14.18 0 00-2.55-.75c-1.1-1.06-1.6-1.19-1.88-1.19zm2 4a.23.23 0 11.23-.23.23.23 0 01-.23.23z" transform="translate(-7.72 -3.05)" fill="#fafafa"/></g></g></svg>